<svg xmlns="http://www.w3.org/2000/svg" width="640" height="180" viewBox="0 0 640 180" fill="none" role="img" aria-label="@plitzi/nexus">
  <defs>
    <linearGradient id="bg" x1="0" y1="0" x2="640" y2="180" gradientUnits="userSpaceOnUse">
      <stop stop-color="#0c0c12" />
      <stop offset="1" stop-color="#16161f" />
    </linearGradient>
    <linearGradient id="mark" x1="0" y1="0" x2="1" y2="1">
      <stop stop-color="#a78bfa" />
      <stop offset="1" stop-color="#7c3aed" />
    </linearGradient>
    <linearGradient id="word" x1="150" y1="0" x2="560" y2="0" gradientUnits="userSpaceOnUse">
      <stop stop-color="#ede9fe" />
      <stop offset="1" stop-color="#a78bfa" />
    </linearGradient>
  </defs>

  <rect width="640" height="180" rx="20" fill="url(#bg)" />
  <rect x="0.5" y="0.5" width="639" height="179" rx="19.5" fill="none" stroke="#2a2a38" />

  <circle cx="96" cy="90" r="130" fill="#7c3aed" opacity="0.10" />

  <!-- nexus mark -->
  <g transform="translate(90 90)">
    <rect x="-36" y="-36" width="72" height="72" rx="18" fill="url(#mark)" />
    <g transform="scale(2.0)" stroke="#fff" stroke-linecap="round" stroke-linejoin="round">
      <path d="M0 -8.5 7.4 -4.25 7.4 4.25 0 8.5 -7.4 4.25 -7.4 -4.25 Z" stroke-width="1.3" stroke-opacity="0.45" />
      <g stroke-width="1.5">
        <path d="M0 0 0 -8.5" />
        <path d="M0 0 7.4 -4.25" />
        <path d="M0 0 7.4 4.25" />
        <path d="M0 0 0 8.5" />
        <path d="M0 0 -7.4 4.25" />
        <path d="M0 0 -7.4 -4.25" />
      </g>
    </g>
    <g transform="scale(2.0)" fill="#fff">
      <circle cx="0" cy="-8.5" r="1.7" />
      <circle cx="7.4" cy="-4.25" r="1.7" />
      <circle cx="7.4" cy="4.25" r="1.7" />
      <circle cx="0" cy="8.5" r="1.7" />
      <circle cx="-7.4" cy="4.25" r="1.7" />
      <circle cx="-7.4" cy="-4.25" r="1.7" />
      <circle cx="0" cy="0" r="2.6" />
    </g>
  </g>

  <!-- wordmark -->
  <text x="158" y="86" font-family="'Inter', system-ui, sans-serif" font-size="46" font-weight="800" letter-spacing="-1" fill="url(#word)">
    @plitzi/nexus
  </text>
  <text x="160" y="120" font-family="'Inter', system-ui, sans-serif" font-size="20" font-weight="500" fill="#a1a1aa">
    A tiny, type-safe React store
  </text>
  <text x="160" y="146" font-family="'JetBrains Mono', ui-monospace, monospace" font-size="15" fill="#8b5cf6">
    path subscriptions · scoped stores · time-travel
  </text>
</svg>
