<svg xmlns="http://www.w3.org/2000/svg" width="640" height="210" viewBox="0 0 640 210" fill="none" role="img" aria-label="@plitzi/nexus — one store, every framework">
  <defs>
    <linearGradient id="bg" x1="0" y1="0" x2="640" y2="210" gradientUnits="userSpaceOnUse">
      <stop stop-color="#0b0b11" />
      <stop offset="1" stop-color="#15131f" />
    </linearGradient>
    <radialGradient id="glow" cx="0.5" cy="0.5" r="0.5">
      <stop stop-color="#7c3aed" stop-opacity="0.55" />
      <stop offset="1" stop-color="#7c3aed" stop-opacity="0" />
    </radialGradient>
    <linearGradient id="mark" x1="0" y1="0" x2="1" y2="1">
      <stop stop-color="#c4b5fd" />
      <stop offset="1" stop-color="#7c3aed" />
    </linearGradient>
    <linearGradient id="hero" x1="0" y1="0" x2="1" y2="0">
      <stop stop-color="#8b5cf6" />
      <stop offset="1" stop-color="#6d28d9" />
    </linearGradient>
    <linearGradient id="word" x1="150" y1="0" x2="600" y2="0" gradientUnits="userSpaceOnUse">
      <stop stop-color="#ffffff" />
      <stop offset="1" stop-color="#b794f6" />
    </linearGradient>
    <linearGradient id="pill" x1="0" y1="0" x2="0" y2="1">
      <stop stop-color="#ffffff" stop-opacity="0.10" />
      <stop offset="1" stop-color="#ffffff" stop-opacity="0.025" />
    </linearGradient>
    <filter id="soft" x="-60%" y="-60%" width="220%" height="220%">
      <feGaussianBlur stdDeviation="7" result="b" />
      <feMerge>
        <feMergeNode in="b" />
        <feMergeNode in="SourceGraphic" />
      </feMerge>
    </filter>
  </defs>

  <rect width="640" height="210" rx="22" fill="url(#bg)" />
  <rect x="0.5" y="0.5" width="639" height="209" rx="21.5" fill="none" stroke="#2a2740" />

  <!-- ambient glow -->
  <circle cx="92" cy="105" r="150" fill="url(#glow)" />

  <!-- nexus mark -->
  <g transform="translate(92 105)">
    <g filter="url(#soft)">
      <rect x="-38" y="-38" width="76" height="76" rx="20" fill="url(#mark)" />
    </g>
    <g transform="scale(2.1)" stroke="#fff" stroke-linecap="round" stroke-linejoin="round">
      <path d="M0 -8.5 7.4 -4.25 7.4 4.25 0 8.5 -7.4 4.25 -7.4 -4.25 Z" stroke-width="1.2" stroke-opacity="0.4" />
      <g stroke-width="1.5">
        <path d="M0 0 0 -8.5" />
        <path d="M0 0 7.4 -4.25" />
        <path d="M0 0 7.4 4.25" />
        <path d="M0 0 0 8.5" />
        <path d="M0 0 -7.4 4.25" />
        <path d="M0 0 -7.4 -4.25" />
      </g>
    </g>
    <g transform="scale(2.1)" fill="#fff">
      <circle cx="0" cy="-8.5" r="1.7" />
      <circle cx="7.4" cy="-4.25" r="1.7" />
      <circle cx="7.4" cy="4.25" r="1.7" />
      <circle cx="0" cy="8.5" r="1.7" />
      <circle cx="-7.4" cy="4.25" r="1.7" />
      <circle cx="-7.4" cy="-4.25" r="1.7" />
      <circle cx="0" cy="0" r="2.6" />
    </g>
  </g>

  <!-- wordmark -->
  <text x="166" y="70" font-family="'Inter', system-ui, sans-serif" font-size="46" font-weight="800" letter-spacing="-1.5" fill="url(#word)">
    @plitzi/nexus
  </text>

  <!-- punchy tagline -->
  <text x="168" y="103" font-family="'Inter', system-ui, sans-serif" font-size="21" font-weight="600" letter-spacing="-0.3" fill="#ece7ff">
    One store. Every framework.
  </text>

  <!-- hero attribute — the headline feature -->
  <g>
    <rect x="166" y="120" width="264" height="32" rx="16" fill="url(#hero)" filter="url(#soft)" />
    <rect x="166" y="120" width="264" height="32" rx="16" fill="url(#hero)" />
    <path transform="translate(186 136)" d="M2.2 -8 L-4.4 1.2 L0 1.2 L-2.2 8 L4.4 -1.2 L0 -1.2 Z" fill="#fff" />
    <text x="200" y="141" font-family="'Inter', system-ui, sans-serif" font-size="14.5" font-weight="700" letter-spacing="-0.2" fill="#ffffff">
      Re-renders only what changed
    </text>
  </g>

  <!-- framework pills -->
  <g font-family="'JetBrains Mono', ui-monospace, monospace" font-size="13" font-weight="500" letter-spacing="0.3" text-anchor="middle">
    <g>
      <rect x="166" y="164" width="74" height="28" rx="14" fill="url(#pill)" stroke="#a78bfa" stroke-opacity="0.4" />
      <text x="203" y="182.5" fill="#d4c6ff">React</text>
    </g>
    <g>
      <rect x="250" y="164" width="60" height="28" rx="14" fill="url(#pill)" stroke="#a78bfa" stroke-opacity="0.4" />
      <text x="280" y="182.5" fill="#d4c6ff">Vue</text>
    </g>
    <g>
      <rect x="320" y="164" width="66" height="28" rx="14" fill="url(#pill)" stroke="#a78bfa" stroke-opacity="0.4" />
      <text x="353" y="182.5" fill="#d4c6ff">Next</text>
    </g>
    <g>
      <rect x="396" y="164" width="80" height="28" rx="14" fill="url(#pill)" stroke="#a78bfa" stroke-opacity="0.4" />
      <text x="436" y="182.5" fill="#d4c6ff">Svelte</text>
    </g>
    <g>
      <rect x="486" y="164" width="100" height="28" rx="14" fill="url(#pill)" stroke="#a78bfa" stroke-opacity="0.4" />
      <text x="536" y="182.5" fill="#d4c6ff">SSR · RSC</text>
    </g>
  </g>
</svg>
