<svg xmlns="http://www.w3.org/2000/svg" viewBox="0 0 32 32" fill="none">
  <defs>
    <linearGradient id="g" x1="0" y1="0" x2="1" y2="1">
      <stop offset="0" stop-color="#a78bfa" />
      <stop offset="1" stop-color="#7c3aed" />
    </linearGradient>
  </defs>
  <rect width="32" height="32" rx="8" fill="url(#g)" />
  <g stroke="#fff" stroke-linecap="round" stroke-linejoin="round">
    <path d="M16 7.5 23.4 11.75 23.4 20.25 16 24.5 8.6 20.25 8.6 11.75 Z" stroke-width="1.3" stroke-opacity="0.45" />
    <g stroke-width="1.5">
      <path d="M16 16 16 7.5" />
      <path d="M16 16 23.4 11.75" />
      <path d="M16 16 23.4 20.25" />
      <path d="M16 16 16 24.5" />
      <path d="M16 16 8.6 20.25" />
      <path d="M16 16 8.6 11.75" />
    </g>
  </g>
  <g fill="#fff">
    <circle cx="16" cy="7.5" r="1.7" />
    <circle cx="23.4" cy="11.75" r="1.7" />
    <circle cx="23.4" cy="20.25" r="1.7" />
    <circle cx="16" cy="24.5" r="1.7" />
    <circle cx="8.6" cy="20.25" r="1.7" />
    <circle cx="8.6" cy="11.75" r="1.7" />
    <circle cx="16" cy="16" r="2.6" />
  </g>
</svg>
