<svg xmlns="http://www.w3.org/2000/svg" width="1200" height="630" viewBox="0 0 1200 630" fill="none">
  <defs>
    <linearGradient id="bg" x1="0" y1="0" x2="1200" y2="630" gradientUnits="userSpaceOnUse">
      <stop stop-color="#0c0c12" />
      <stop offset="1" stop-color="#11111a" />
    </linearGradient>
    <linearGradient id="brand" x1="120" y1="250" x2="760" y2="250" gradientUnits="userSpaceOnUse">
      <stop stop-color="#c4b5fd" />
      <stop offset="0.5" stop-color="#a78bfa" />
      <stop offset="1" stop-color="#7c3aed" />
    </linearGradient>
    <linearGradient id="cube" x1="0" y1="0" x2="1" y2="1">
      <stop stop-color="#a78bfa" />
      <stop offset="1" stop-color="#7c3aed" />
    </linearGradient>
  </defs>

  <rect width="1200" height="630" fill="url(#bg)" />

  <g opacity="0.5">
    <circle cx="600" cy="120" r="320" fill="#7c3aed" opacity="0.18" />
  </g>

  <g stroke="#7c3aed" stroke-opacity="0.10" stroke-width="1">
    <path d="M0 158 H1200 M0 316 H1200 M0 474 H1200 M200 0 V630 M400 0 V630 M600 0 V630 M800 0 V630 M1000 0 V630" />
  </g>

  <g transform="translate(120 110)">
    <rect width="64" height="64" rx="16" fill="url(#cube)" />
    <g transform="translate(32 32) scale(2)" stroke="#fff" stroke-linecap="round" stroke-linejoin="round">
      <path d="M0 -8.5 7.4 -4.25 7.4 4.25 0 8.5 -7.4 4.25 -7.4 -4.25 Z" stroke-width="1.3" stroke-opacity="0.45" />
      <g stroke-width="1.5">
        <path d="M0 0 0 -8.5" />
        <path d="M0 0 7.4 -4.25" />
        <path d="M0 0 7.4 4.25" />
        <path d="M0 0 0 8.5" />
        <path d="M0 0 -7.4 4.25" />
        <path d="M0 0 -7.4 -4.25" />
      </g>
    </g>
    <g transform="translate(32 32) scale(2)" fill="#fff">
      <circle cx="0" cy="-8.5" r="1.7" />
      <circle cx="7.4" cy="-4.25" r="1.7" />
      <circle cx="7.4" cy="4.25" r="1.7" />
      <circle cx="0" cy="8.5" r="1.7" />
      <circle cx="-7.4" cy="4.25" r="1.7" />
      <circle cx="-7.4" cy="-4.25" r="1.7" />
      <circle cx="0" cy="0" r="2.6" />
    </g>
    <text x="84" y="42" font-family="Inter, system-ui, sans-serif" font-size="26" font-weight="600" fill="#a1a1aa">
      @plitzi/nexus
    </text>
  </g>

  <text x="120" y="320" font-family="Inter, system-ui, sans-serif" font-size="92" font-weight="800" fill="#ffffff">
    A tiny, type-safe
  </text>
  <text x="120" y="424" font-family="Inter, system-ui, sans-serif" font-size="92" font-weight="800" fill="url(#brand)">
    React store
  </text>

  <text x="122" y="492" font-family="Inter, system-ui, sans-serif" font-size="30" font-weight="400" fill="#a1a1aa">
    Path-based subscriptions · scoped stores · time-travel
  </text>

  <g transform="translate(122 540)" font-family="'JetBrains Mono', monospace" font-size="24">
    <rect x="-2" y="-30" width="430" height="46" rx="10" fill="#16161f" stroke="#2a2a38" />
    <text x="18" y="0" fill="#7c3aed">$</text>
    <text x="40" y="0" fill="#d4d4d8">npm install @plitzi/nexus</text>
  </g>
</svg>
