<svg xmlns="http://www.w3.org/2000/svg" width="1200" height="630" viewBox="0 0 1200 630" fill="none">
  <defs>
    <linearGradient id="bg" x1="0" y1="0" x2="1200" y2="630" gradientUnits="userSpaceOnUse">
      <stop stop-color="#0c0c12" />
      <stop offset="1" stop-color="#11111a" />
    </linearGradient>
    <linearGradient id="brand" x1="120" y1="250" x2="760" y2="250" gradientUnits="userSpaceOnUse">
      <stop stop-color="#c4b5fd" />
      <stop offset="0.5" stop-color="#a78bfa" />
      <stop offset="1" stop-color="#7c3aed" />
    </linearGradient>
    <linearGradient id="cube" x1="0" y1="0" x2="1" y2="1">
      <stop stop-color="#a78bfa" />
      <stop offset="1" stop-color="#7c3aed" />
    </linearGradient>
  </defs>

  <rect width="1200" height="630" fill="url(#bg)" />

  <g opacity="0.5">
    <circle cx="600" cy="120" r="320" fill="#7c3aed" opacity="0.18" />
  </g>

  <g stroke="#7c3aed" stroke-opacity="0.10" stroke-width="1">
    <path d="M0 158 H1200 M0 316 H1200 M0 474 H1200 M200 0 V630 M400 0 V630 M600 0 V630 M800 0 V630 M1000 0 V630" />
  </g>

  <g transform="translate(120 110)">
    <rect width="64" height="64" rx="16" fill="url(#cube)" />
    <path d="M14 24 L32 15 L50 24 V46 L32 55 L14 46 Z" fill="none" stroke="#fff" stroke-width="2.4" stroke-linejoin="round" />
    <path d="M32 15 V37 M32 37 L50 24 M32 37 L14 24" fill="none" stroke="#fff" stroke-width="2.4" stroke-linejoin="round" />
    <text x="84" y="42" font-family="Inter, system-ui, sans-serif" font-size="26" font-weight="600" fill="#a1a1aa">
      @plitzi/sdk-store
    </text>
  </g>

  <text x="120" y="320" font-family="Inter, system-ui, sans-serif" font-size="92" font-weight="800" fill="#ffffff">
    A tiny, type-safe
  </text>
  <text x="120" y="424" font-family="Inter, system-ui, sans-serif" font-size="92" font-weight="800" fill="url(#brand)">
    React store
  </text>

  <text x="122" y="492" font-family="Inter, system-ui, sans-serif" font-size="30" font-weight="400" fill="#a1a1aa">
    Path-based subscriptions · scoped stores · time-travel
  </text>

  <g transform="translate(122 540)" font-family="'JetBrains Mono', monospace" font-size="24">
    <rect x="-2" y="-30" width="430" height="46" rx="10" fill="#16161f" stroke="#2a2a38" />
    <text x="18" y="0" fill="#7c3aed">$</text>
    <text x="40" y="0" fill="#d4d4d8">npm install @plitzi/sdk-store</text>
  </g>
</svg>
